<svg version="1.1" xmlns="http://www.w3.org/2000/svg" xmlns:xlink="http://www.w3.org/1999/xlink" width="19" height="19"><defs/><g><path fill="rgb(255,255,255)" stroke="none" paint-order="stroke fill markers" fill-rule="evenodd" d=" M 15.269325256347656 15.428755640983582 C 14.667346954345703 15.386054515838623 13.9783935546875 15.352364659309387 13.234851837158203 15.326866865158081 C 13.913333892822266 14.736833572387695 14.486091613769531 13.971797347068787 14.90713882446289 13.081729769706726 C 15.11273193359375 13.289193749427795 15.368240356445312 13.440439701080322 15.657814025878906 13.511096239089966 C 15.784538269042969 13.542328476905823 15.91269302368164 13.557586193084717 16.039894104003906 13.557586193084717 C 16.331050872802734 13.557586193084717 16.61743927001953 13.477099180221558 16.872299194335938 13.320528388023376 C 17.238662719726562 13.09524667263031 17.496421813964844 12.73991596698761 17.597511291503906 12.319560766220093 C 17.698829650878906 11.898898363113403 17.63155746459961 11.46420705318451 17.408321380615234 11.095052242279053 C 17.034175872802734 10.475629925727844 16.312301635742188 10.206725478172302 15.649040222167969 10.373229146003723 C 15.677841186523438 10.08466374874115 15.697410583496094 9.792514324188232 15.697410583496094 9.49401605129242 C 15.697410583496094 9.182615280151367 15.447433471679688 8.930402159690857 15.138500213623047 8.930402159690857 C 15.138500213623047 8.930402159690857 4.7926788330078125 8.930402159690857 4.7926788330078125 8.930402159690857 C 4.484031677246094 8.930402159690857 4.2337493896484375 9.182615280151367 4.2337493896484375 9.49401605129242 C 4.2337493896484375 11.907295227050781 5.2086334228515625 14.039791464805603 6.693141937255859 15.327481269836426 C 5.950878143310547 15.352876663208008 5.263031005859375 15.386361718177795 4.6619873046875 15.428755640983582 C 2.5695877075195312 15.57631516456604 1.9612197875976562 15.716809034347534 1.9612197875976562 16.36275315284729 C 1.9612197875976562 17.008390069007874 2.5695877075195312 17.149088740348816 4.6619873046875 17.296750664711 C 6.080615997314453 17.39689862728119 7.964237213134766 17.45209264755249 9.965656280517578 17.45209264755249 C 11.966922760009766 17.45209264755249 13.85052490234375 17.39689862728119 15.269325256347656 17.296750664711 C 17.361724853515625 17.149088740348816 17.969921112060547 17.008390069007874 17.969921112060547 16.36275315284729 C 17.969921112060547 15.716809034347534 17.361724853515625 15.57631516456604 15.269325256347656 15.428755640983582 Z M 15.537269592285156 11.136626958847046 C 15.54140853881836 11.133862137794495 15.54617691040039 11.134271740913391 15.550315856933594 11.131609320640564 C 15.990455627441406 10.861271262168884 16.567161560058594 11.002584338188171 16.83556365966797 11.446696519851685 C 16.96564483642578 11.661635756492615 17.004573822021484 11.91497528553009 16.94561767578125 12.160020351409912 C 16.886756896972656 12.40496301651001 16.737010955810547 12.611607789993286 16.523292541503906 12.742578387260437 C 16.31005096435547 12.874265789985657 16.058509826660156 12.913280487060547 15.816181182861328 12.854092836380005 C 15.573375701904297 12.79459798336029 15.367935180664062 12.643454432487488 15.238178253173828 12.428003191947937 C 15.22768783569336 12.410287857055664 15.211475372314453 12.399330973625183 15.198295593261719 12.384687662124634 C 15.34151840209961 11.986246228218079 15.454280853271484 11.568655848503113 15.537269592285156 11.136626958847046 Z M 5.371959686279297 10.057527542114258 C 5.371959686279297 10.057527542114258 14.559410095214844 10.057527542114258 14.559410095214844 10.057527542114258 C 14.339778900146484 13.096065878868103 12.363327026367188 15.481799244880676 9.965656280517578 15.481799244880676 C 7.567985534667969 15.481799244880676 5.591686248779297 13.096065878868103 5.371959686279297 10.057527542114258 Z M 8.92926025390625 7.778188586235046 C 8.92926025390625 7.778188586235046 8.966930389404297 7.779826998710632 8.966930389404297 7.779826998710632 C 9.104316711425781 7.779826998710632 9.236915588378906 7.714392900466919 9.321983337402344 7.603697657585144 C 9.416301727294922 7.480509519577026 9.441268920898438 7.31933069229126 9.38895034790039 7.174023985862732 C 9.384468078613281 7.161326289176941 8.955791473388672 5.915723204612732 9.512470245361328 4.878300905227661 C 10.103385925292969 3.890338182449341 10.29593276977539 3.09468412399292 10.08444595336914 2.513969302177429 C 9.894569396972656 1.992134928703308 9.46636962890625 1.8536890745162964 9.419315338134766 1.8400697708129883 C 9.18478775024414 1.7708468437194824 8.930519104003906 1.9092926979064941 8.861358642578125 2.144404888153076 C 8.791072845458984 2.3833059072494507 8.92672348022461 2.6358262300491333 9.144847869873047 2.699929118156433 C 9.147403717041016 2.70085072517395 9.207847595214844 2.73116135597229 9.242504119873047 2.8260868787765503 C 9.293392181396484 2.965454339981079 9.347599029541016 3.397483229637146 8.758647918701172 4.387493968009949 C 8.758647918701172 4.387493968009949 8.737018585205078 4.423948645591736 8.737018585205078 4.423948645591736 C 8.692024230957031 4.498701214790344 8.643482208251953 4.576218605041504 8.59103012084961 4.65711522102356 C 7.909534454345703 5.710614442825317 7.705371856689453 6.540470361709595 7.984264373779297 7.122004389762878 C 8.208625793457031 7.591614365577698 8.68166732788086 7.755148410797119 8.92926025390625 7.778188586235046 Z M 11.314857482910156 7.861952424049377 C 11.314857482910156 7.861952424049377 11.346176147460938 7.8628740310668945 11.346176147460938 7.8628740310668945 C 11.474960327148438 7.8628740310668945 11.599300384521484 7.801740765571594 11.67910385131836 7.698315978050232 C 11.768329620361328 7.582500696182251 11.79201889038086 7.43115234375 11.742713928222656 7.293935298919678 C 11.74032974243164 7.286869645118713 11.500385284423828 6.580304265022278 11.80584716796875 6.01034152507782 C 12.198284149169922 5.354771733283997 12.317378997802734 4.8380573987960815 12.169349670410156 4.4310142993927 C 12.032115936279297 4.054896235466003 11.7261962890625 3.9451225996017456 11.664493560791016 3.9264856576919556 C 11.446674346923828 3.862587571144104 11.20465087890625 3.996118187904358 11.14138412475586 4.213310241699219 C 11.109073638916016 4.321957468986511 11.120841979980469 4.436748743057251 11.174591064453125 4.536794304847717 C 11.227882385253906 4.636225461959839 11.316726684570312 4.709134817123413 11.424053192138672 4.741493463516235 C 11.398151397705078 4.7340182065963745 11.379554748535156 4.725826144218445 11.378124237060547 4.725109338760376 C 11.38623046875 4.74733030796051 11.447608947753906 4.961245536804199 11.096694946289062 5.55015242099762 C 11.096694946289062 5.55015242099762 11.070907592773438 5.593263149261475 11.070907592773438 5.593263149261475 C 11.04656982421875 5.63340425491333 11.020515441894531 5.674978971481323 10.993011474609375 5.71788489818573 C 10.537899017333984 6.421275854110718 10.413101196289062 6.963590383529663 10.611064910888672 7.375548720359802 C 10.765312194824219 7.698623180389404 11.08176040649414 7.839219450950623 11.314857482910156 7.861952424049377 Z"/></g></svg>